<svg xmlns="http://www.w3.org/2000/svg" viewBox="0 0 100 100" width="100%" height="100%">
  <style>
    @keyframes whaleBob {
      0%, 100% { transform: translateY(-3px) rotate(-1deg); }
      50% { transform: translateY(3px) rotate(1deg); }
    }
    .docker-whale { animation: whaleBob 3s infinite ease-in-out; }
  </style>
  <g class="docker-whale">
    <path d="M 12 60 C 20 52, 40 52, 50 60 C 60 52, 80 50, 90 60 C 95 65, 90 80, 75 80 C 45 82, 20 80, 10 70 Z" fill="#2496ED"/>
    <circle cx="82" cy="64" r="2.5" fill="#FFFFFF"/>
    <rect x="25" y="44" width="10" height="9" rx="1" fill="#2496ED" stroke="#FFFFFF" stroke-width="1.5"/>
    <rect x="37" y="44" width="10" height="9" rx="1" fill="#2496ED" stroke="#FFFFFF" stroke-width="1.5"/>
    <rect x="49" y="44" width="10" height="9" rx="1" fill="#2496ED" stroke="#FFFFFF" stroke-width="1.5"/>
    <rect x="37" y="33" width="10" height="9" rx="1" fill="#2496ED" stroke="#FFFFFF" stroke-width="1.5"/>
    <rect x="49" y="33" width="10" height="9" rx="1" fill="#2496ED" stroke="#FFFFFF" stroke-width="1.5"/>
    <rect x="61" y="44" width="10" height="9" rx="1" fill="#2496ED" stroke="#FFFFFF" stroke-width="1.5"/>
  </g>
</svg>
